<svg width="22" height="22" viewBox="0 0 22 22" fill="none" xmlns="http://www.w3.org/2000/svg">
<path d="M2.74996 17.4166H19.25C19.417 17.4161 19.5808 17.37 19.7236 17.2834C19.8664 17.1967 19.9829 17.0727 20.0605 16.9248C20.1381 16.7769 20.1739 16.6106 20.164 16.4438C20.1541 16.277 20.0989 16.1161 20.0044 15.9784L11.7544 4.06172C11.4125 3.56764 10.5893 3.56764 10.2465 4.06172L1.99646 15.9784C1.90096 16.1158 1.84496 16.2768 1.83454 16.4439C1.82412 16.6109 1.85967 16.7776 1.93734 16.9259C2.01501 17.0741 2.13183 17.1982 2.27509 17.2848C2.41835 17.3713 2.58259 17.4169 2.74996 17.4166Z" fill="#3C3C3C"/>
</svg>
