<svg width="19" height="20" viewBox="0 0 19 20" fill="none" xmlns="http://www.w3.org/2000/svg">
<path d="M16.8495 6.89649L12.1384 6.17579L10.0325 1.68165C9.97497 1.5586 9.88034 1.45899 9.76344 1.39844C9.47028 1.2461 9.11403 1.37305 8.96745 1.68165L6.86149 6.17579L2.15045 6.89649C2.02057 6.91602 1.90182 6.98048 1.8109 7.07813C1.70099 7.19705 1.64042 7.35704 1.64251 7.52294C1.6446 7.68884 1.70917 7.84709 1.82204 7.9629L5.23053 11.4609L4.42526 16.4004C4.40638 16.5153 4.41845 16.6335 4.46013 16.7415C4.5018 16.8496 4.5714 16.9432 4.66103 17.0117C4.75066 17.0802 4.85674 17.1209 4.96724 17.1292C5.07774 17.1375 5.18823 17.113 5.2862 17.0586L9.49997 14.7266L13.7137 17.0586C13.8288 17.1231 13.9624 17.1445 14.0904 17.1211C14.4132 17.0625 14.6303 16.7402 14.5747 16.4004L13.7694 11.4609L17.1779 7.9629C17.2707 7.8672 17.3319 7.74219 17.3505 7.60548C17.4006 7.26368 17.1742 6.94727 16.8495 6.89649Z" fill="#3B3B3B"/>
</svg>
