<svg width="40" height="40" viewBox="0 0 40 40" fill="none" xmlns="http://www.w3.org/2000/svg">
<path d="M0 20C0 8.95431 8.95431 0 20 0C31.0457 0 40 8.95431 40 20C40 31.0457 31.0457 40 20 40C8.95431 40 0 31.0457 0 20Z" fill="#747474" fill-opacity="0.5"/>
<path d="M24.5345 23.4477C25.2671 23.0541 26.1057 22.8301 26.9987 22.8301H27.0018C27.0926 22.8301 27.135 22.7211 27.0684 22.6605C26.1396 21.8271 25.0787 21.1539 23.929 20.6686C23.9169 20.6625 23.9048 20.6595 23.8927 20.6534C25.7727 19.2881 26.9957 17.069 26.9957 14.5654C26.9957 10.418 23.6414 7.05762 19.503 7.05762C15.3647 7.05762 12.0134 10.418 12.0134 14.5654C12.0134 17.069 13.2364 19.2881 15.1194 20.6534C15.1073 20.6595 15.0952 20.6625 15.0831 20.6686C13.7299 21.2407 12.5159 22.0611 11.4715 23.1086C10.4331 24.1451 9.60639 25.3739 9.03751 26.7263C8.4778 28.0506 8.17573 29.4695 8.14748 30.907C8.14667 30.9393 8.15233 30.9715 8.16414 31.0016C8.17595 31.0317 8.19366 31.0591 8.21623 31.0822C8.2388 31.1053 8.26578 31.1237 8.29556 31.1363C8.32535 31.1488 8.35734 31.1553 8.38966 31.1553H10.203C10.3332 31.1553 10.4422 31.0493 10.4452 30.9191C10.5058 28.582 11.4412 26.3933 13.0972 24.7343C14.8076 23.0178 17.0842 22.0732 19.5061 22.0732C21.2226 22.0732 22.8695 22.5485 24.2893 23.4386C24.3257 23.4615 24.3676 23.4744 24.4107 23.476C24.4537 23.4776 24.4964 23.4678 24.5345 23.4477ZM19.5061 19.7725C18.1195 19.7725 16.8148 19.2306 15.8309 18.2467C15.3468 17.7638 14.963 17.19 14.7017 16.5582C14.4403 15.9264 14.3066 15.2491 14.3081 14.5654C14.3081 13.1759 14.85 11.8681 15.8309 10.8842C16.8117 9.90029 18.1165 9.3584 19.5061 9.3584C20.8956 9.3584 22.1974 9.90029 23.1813 10.8842C23.6654 11.367 24.0491 11.9409 24.3105 12.5727C24.5718 13.2045 24.7056 13.8817 24.704 14.5654C24.704 15.955 24.1621 17.2628 23.1813 18.2467C22.1974 19.2306 20.8926 19.7725 19.5061 19.7725ZM30.6406 26.9775H28.0977V24.4346C28.0977 24.3014 27.9887 24.1924 27.8555 24.1924H26.1602C26.027 24.1924 25.918 24.3014 25.918 24.4346V26.9775H23.375C23.2418 26.9775 23.1328 27.0865 23.1328 27.2197V28.915C23.1328 29.0482 23.2418 29.1572 23.375 29.1572H25.918V31.7002C25.918 31.8334 26.027 31.9424 26.1602 31.9424H27.8555C27.9887 31.9424 28.0977 31.8334 28.0977 31.7002V29.1572H30.6406C30.7738 29.1572 30.8828 29.0482 30.8828 28.915V27.2197C30.8828 27.0865 30.7738 26.9775 30.6406 26.9775Z" fill="white" fill-opacity="0.5"/>
</svg>
