<svg width="13" height="13" viewBox="0 0 13 13" fill="none" xmlns="http://www.w3.org/2000/svg">
<path d="M6.49998 1.08325C4.40373 1.08325 2.70831 2.77867 2.70831 4.87492C2.70831 7.71867 6.49998 11.9166 6.49998 11.9166C6.49998 11.9166 10.2916 7.71867 10.2916 4.87492C10.2916 2.77867 8.59623 1.08325 6.49998 1.08325ZM6.49998 6.22909C6.14083 6.22909 5.79639 6.08641 5.54244 5.83246C5.28848 5.5785 5.14581 5.23407 5.14581 4.87492C5.14581 4.51577 5.28848 4.17133 5.54244 3.91738C5.79639 3.66342 6.14083 3.52075 6.49998 3.52075C6.85913 3.52075 7.20356 3.66342 7.45752 3.91738C7.71148 4.17133 7.85415 4.51577 7.85415 4.87492C7.85415 5.23407 7.71148 5.5785 7.45752 5.83246C7.20356 6.08641 6.85913 6.22909 6.49998 6.22909Z" fill="#FFA36C"/>
</svg>
