<svg width="21" height="21" viewBox="0 0 21 21" fill="none" xmlns="http://www.w3.org/2000/svg">
<path d="M10.6267 2.0332C7.41455 2.0332 4.81665 4.6311 4.81665 7.8432C4.81665 12.2007 10.6267 18.6332 10.6267 18.6332C10.6267 18.6332 16.4367 12.2007 16.4367 7.8432C16.4367 4.6311 13.8387 2.0332 10.6267 2.0332ZM10.6267 9.9182C10.0763 9.9182 9.54854 9.69959 9.1594 9.31045C8.77027 8.92131 8.55165 8.39353 8.55165 7.8432C8.55165 7.29288 8.77027 6.76509 9.1594 6.37596C9.54854 5.98682 10.0763 5.7682 10.6267 5.7682C11.177 5.7682 11.7048 5.98682 12.0939 6.37596C12.483 6.76509 12.7017 7.29288 12.7017 7.8432C12.7017 8.39353 12.483 8.92131 12.0939 9.31045C11.7048 9.69959 11.177 9.9182 10.6267 9.9182Z" fill="#FFA36C"/>
</svg>
