<svg width="17" height="16" viewBox="0 0 17 16" fill="none" xmlns="http://www.w3.org/2000/svg">
<path d="M15.651 2.48814L13.6485 0.487541C13.5073 0.345663 13.3394 0.233093 13.1545 0.156296C12.9696 0.0795 12.7714 0.0399911 12.5712 0.0400391C12.1631 0.0400391 11.7796 0.199861 11.4919 0.487541L9.33716 2.64232C9.19528 2.78357 9.08272 2.95147 9.00592 3.13636C8.92913 3.32126 8.88962 3.5195 8.88967 3.71971C8.88967 4.12772 9.04949 4.51129 9.33716 4.79897L10.9128 6.37463C10.544 7.18758 10.0312 7.92714 9.39921 8.55761C8.76881 9.19114 8.02932 9.7058 7.21626 10.0769L5.64063 8.5012C5.49937 8.35933 5.33148 8.24676 5.14659 8.16996C4.9617 8.09316 4.76346 8.05365 4.56326 8.0537C4.15525 8.0537 3.77168 8.21352 3.484 8.5012L1.32738 10.6541C1.18533 10.7956 1.07266 10.9638 0.995865 11.149C0.919066 11.3343 0.87965 11.5329 0.879884 11.7334C0.879884 12.1414 1.0397 12.525 1.32738 12.8126L3.32606 14.8114C3.78484 15.272 4.41848 15.5334 5.06904 15.5334C5.20629 15.5334 5.33791 15.5221 5.46765 15.4995C8.0022 15.0821 10.5161 13.734 12.5448 11.707C14.5717 9.68201 15.918 7.16998 16.341 4.62787C16.4689 3.85132 16.2113 3.05221 15.651 2.48814Z" fill="#FFA36C"/>
</svg>
