<svg width="25" height="28" viewBox="0 0 25 28" fill="none" xmlns="http://www.w3.org/2000/svg">
<path d="M1.38577 9.17935C-0.0445247 14.076 1.55517 19.7919 5.35336 23.3814C12.5201 30.1554 22.3276 26.5909 24.3752 20.4704C25.0383 18.4859 23.4336 16.2719 21.4148 16.0796C18.945 15.8431 17.4259 12.9351 18.5861 10.6969L20.3991 7.19909C21.2134 5.62794 20.6055 3.54 19.0788 2.55239C12.3181 -1.76615 3.74569 1.11211 1.38577 9.17935ZM12.4123 22.6078C12.0097 23.3846 11.072 23.6183 10.314 23.1308C9.55598 22.6433 9.26886 21.6219 9.67149 20.8451C10.0741 20.0683 11.0118 19.8346 11.7698 20.3221C12.5279 20.8095 12.815 21.831 12.4123 22.6078ZM7.65856 17.6781C7.25593 18.4549 6.31823 18.6887 5.56021 18.2012C4.80219 17.7137 4.51507 16.6923 4.91771 15.9155C5.32034 15.1387 6.25804 14.9049 7.01606 15.3924C7.77408 15.8799 8.0612 16.9013 7.65856 17.6781ZM7.82941 10.298C7.42677 11.0748 6.48907 11.3085 5.73105 10.821C4.97304 10.3335 4.68592 9.31212 5.08855 8.53533C5.49118 7.75853 6.42889 7.52478 7.1869 8.01226C7.94492 8.49974 8.23204 9.52116 7.82941 10.298ZM13.482 6.44308C13.0793 7.21988 12.1416 7.45362 11.3836 6.96614C10.6256 6.47866 10.3385 5.45724 10.7411 4.68044C11.1437 3.90364 12.0814 3.6699 12.8395 4.15738C13.5975 4.64486 13.8846 5.66628 13.482 6.44308Z" fill="#FF9F61"/>
</svg>
