<svg width="23" height="26" viewBox="0 0 23 26" fill="none" xmlns="http://www.w3.org/2000/svg">
<path d="M0.535151 8.72369C-0.798801 13.2905 0.693144 18.6214 4.23549 21.9691C10.9195 28.2868 20.0663 24.9624 21.976 19.2541C22.5944 17.4034 21.0978 15.3385 19.215 15.1592C16.9116 14.9385 15.4949 12.2265 16.5768 10.139L18.2677 6.87682C19.0272 5.4115 18.4602 3.4642 17.0364 2.54312C10.7311 -1.48453 2.73611 1.19986 0.535151 8.72369ZM10.819 21.2476C10.4435 21.9721 9.56893 22.19 8.86198 21.7354C8.15502 21.2808 7.88724 20.3281 8.26275 19.6037C8.63826 18.8792 9.5128 18.6612 10.2198 19.1158C10.9267 19.5705 11.1945 20.5231 10.819 21.2476ZM6.38541 16.65C6.0099 17.3745 5.13536 17.5925 4.4284 17.1378C3.72144 16.6832 3.45367 15.7306 3.82918 15.0061C4.20469 14.2816 5.07923 14.0636 5.78619 14.5183C6.49315 14.9729 6.76092 15.9255 6.38541 16.65ZM6.54475 9.76695C6.16924 10.4914 5.2947 10.7094 4.58774 10.2548C3.88078 9.80014 3.613 8.84752 3.98851 8.12305C4.36403 7.39857 5.23857 7.18058 5.94552 7.63522C6.65248 8.08986 6.92026 9.04248 6.54475 9.76695ZM11.8166 6.17173C11.441 6.89621 10.5665 7.1142 9.85954 6.65956C9.15258 6.20492 8.88481 5.2523 9.26032 4.52783C9.63583 3.80335 10.5104 3.58536 11.2173 4.04C11.9243 4.49464 12.1921 5.44726 11.8166 6.17173Z" fill="#749645"/>
</svg>
