<svg width="20" height="15" viewBox="0 0 20 15" fill="none" xmlns="http://www.w3.org/2000/svg">
<path d="M0.999963 15.0001H19C19.1822 14.9995 19.3608 14.9493 19.5166 14.8547C19.6724 14.7602 19.7995 14.6249 19.8842 14.4636C19.9688 14.3022 20.0078 14.1207 19.9971 13.9388C19.9863 13.7569 19.9261 13.5814 19.823 13.4311L10.823 0.431105C10.45 -0.107895 9.55196 -0.107895 9.17796 0.431105L0.177963 13.4311C0.0737882 13.581 0.0126975 13.7567 0.00132857 13.9389C-0.0100404 14.1211 0.0287473 14.303 0.113477 14.4647C0.198207 14.6264 0.325639 14.7619 0.481928 14.8562C0.638216 14.9506 0.817383 15.0004 0.999963 15.0001ZM9.99996 2.75711L17.092 13.0001H2.90796L9.99996 2.75711Z" fill="#BABABA"/>
</svg>
