<svg width="40" height="40" viewBox="0 0 40 40" fill="none" xmlns="http://www.w3.org/2000/svg">
<path d="M0 20C0 8.95431 8.95431 0 20 0C31.0457 0 40 8.95431 40 20C40 31.0457 31.0457 40 20 40C8.95431 40 0 31.0457 0 20Z" fill="#9CCC65"/>
<path d="M29 13.18L17.59 24.6L13.35 20.36L14.76 18.95L17.59 21.78L27.59 11.78L29 13.18ZM19 28C14.59 28 11 24.41 11 20C11 15.59 14.59 12 19 12C20.57 12 22.04 12.46 23.28 13.25L24.73 11.8C23.049 10.6282 21.0491 9.99998 19 10C13.48 10 9 14.48 9 20C9 25.52 13.48 30 19 30C20.73 30 22.36 29.56 23.78 28.78L22.28 27.28C21.28 27.74 20.17 28 19 28ZM26 23H23V25H26V28H28V25H31V23H28V20H26V23Z" fill="white"/>
</svg>
