<svg width="17" height="17" viewBox="0 0 17 17" fill="none" xmlns="http://www.w3.org/2000/svg">
<path d="M12.0041 9.89585C12.0661 9.38457 12.1125 8.87329 12.1125 8.34652C12.1125 7.81975 12.0661 7.30847 12.0041 6.79719H14.6225C14.7464 7.29297 14.8239 7.812 14.8239 8.34652C14.8239 8.88104 14.7464 9.40007 14.6225 9.89585H12.0041ZM10.6329 14.203C11.0977 13.3431 11.4541 12.4135 11.702 11.4452H13.9872C13.2367 12.7375 12.046 13.7165 10.6329 14.203ZM10.4393 9.89585H6.81383C6.73636 9.38457 6.68988 8.87329 6.68988 8.34652C6.68988 7.81975 6.73636 7.30072 6.81383 6.79719H10.4393C10.509 7.30072 10.5632 7.81975 10.5632 8.34652C10.5632 8.87329 10.509 9.38457 10.4393 9.89585ZM8.62655 14.5129C7.98358 13.5833 7.46455 12.553 7.14694 11.4452H10.1062C9.78855 12.553 9.26952 13.5833 8.62655 14.5129ZM5.52788 5.24785H3.26586C4.00865 3.952 5.19849 2.97148 6.61242 2.49004C6.14762 3.34992 5.79902 4.27952 5.52788 5.24785ZM3.26586 11.4452H5.52788C5.79902 12.4135 6.14762 13.3431 6.61242 14.203C5.20146 13.7163 4.01329 12.7371 3.26586 11.4452ZM2.63063 9.89585C2.50668 9.40007 2.42922 8.88104 2.42922 8.34652C2.42922 7.812 2.50668 7.29297 2.63063 6.79719H5.249C5.18703 7.30847 5.14055 7.81975 5.14055 8.34652C5.14055 8.87329 5.18703 9.38457 5.249 9.89585H2.63063ZM8.62655 2.17243C9.26952 3.10203 9.78855 4.14008 10.1062 5.24785H7.14694C7.46455 4.14008 7.98358 3.10203 8.62655 2.17243ZM13.9872 5.24785H11.702C11.4595 4.2884 11.1005 3.36223 10.6329 2.49004C12.0583 2.97808 13.2436 3.96191 13.9872 5.24785ZM8.62655 0.599854C4.34264 0.599854 0.879883 4.08585 0.879883 8.34652C0.879883 10.4011 1.69605 12.3715 3.14883 13.8242C3.86817 14.5436 4.72216 15.1142 5.66203 15.5035C6.6019 15.8928 7.60924 16.0932 8.62655 16.0932C10.6811 16.0932 12.6515 15.277 14.1043 13.8242C15.5571 12.3715 16.3732 10.4011 16.3732 8.34652C16.3732 7.32921 16.1728 6.32187 15.7835 5.382C15.3942 4.44213 14.8236 3.58814 14.1043 2.8688C13.3849 2.14946 12.5309 1.57884 11.5911 1.18953C10.6512 0.800227 9.64386 0.599854 8.62655 0.599854Z" fill="#FFA36C"/>
</svg>
